<svg width="45" height="45" viewBox="0 0 45 45" fill="none" xmlns="http://www.w3.org/2000/svg">
<path d="M38.3662 6.05615C38.6531 6.05615 38.9419 6.2024 39.0863 6.34678C39.1572 6.4798 39.1942 6.62822 39.1942 6.77896C39.1942 6.92971 39.1572 7.07813 39.0863 7.21115L27.6919 27.4049L34.9031 40.6724C34.9744 40.8057 35.0116 40.9544 35.0116 41.1055C35.0116 41.2566 34.9744 41.4054 34.9031 41.5387C34.706 41.7189 34.4502 41.8216 34.1831 41.8274H28.9894C28.2694 41.8274 27.8363 41.2499 27.5475 40.8168L20.1919 27.403C20.625 26.8274 31.7306 7.06865 31.7306 7.06865C32.0194 6.49303 32.4525 6.0599 33.1744 6.0599H38.3662V6.05615ZM16.7306 13.1249C17.4525 13.1249 17.8837 13.7024 18.1744 14.1337L21.7781 20.3362C21.4912 20.6249 16.1531 30.1424 16.1531 30.1424C15.8662 30.5774 15.4331 31.1549 14.7113 31.1549H9.66375C9.39604 31.1495 9.13945 31.0469 8.94187 30.8662C8.87064 30.7329 8.83337 30.5841 8.83337 30.433C8.83337 30.2819 8.87064 30.1332 8.94187 29.9999L14.2781 20.3362L10.8169 14.2799C10.7456 14.1466 10.7084 13.9979 10.7084 13.8468C10.7084 13.6957 10.7456 13.5469 10.8169 13.4137C11.0145 13.2329 11.271 13.1303 11.5387 13.1249H16.7325H16.7306Z" fill="black"/>
</svg>
