<svg width="35" height="35" viewBox="0 0 35 35" fill="none" xmlns="http://www.w3.org/2000/svg">
<path d="M29.3781 29.3856H24.3813V21.5537C24.3813 19.6862 24.3437 17.2825 21.775 17.2825C19.1706 17.2825 18.7731 19.315 18.7731 21.4169V29.3856H13.7744V13.2812H18.5744V15.475H18.64C19.3112 14.2113 20.9425 12.8744 23.38 12.8744C28.4425 12.8744 29.38 16.2081 29.38 20.545V29.3856H29.3781ZM8.13062 11.0781C7.74917 11.0786 7.37136 11.0038 7.01887 10.858C6.66638 10.7122 6.34613 10.4983 6.07648 10.2284C5.80684 9.95862 5.5931 9.63824 5.44752 9.28565C5.30194 8.93306 5.22738 8.55521 5.22812 8.17375C5.2285 7.59969 5.39909 7.03863 5.71833 6.56152C6.03757 6.08442 6.49111 5.71269 7.02162 5.49335C7.55212 5.27401 8.13576 5.21691 8.69871 5.32926C9.26167 5.44162 9.77867 5.71839 10.1843 6.12457C10.59 6.53076 10.8661 7.04811 10.9777 7.61121C11.0893 8.17432 11.0315 8.75788 10.8115 9.2881C10.5914 9.81832 10.2191 10.2714 9.74161 10.59C9.26409 10.9086 8.70281 11.0785 8.12875 11.0781H8.13062ZM10.6356 29.3856H5.62375V13.2812H10.6375V29.3856H10.6356ZM31.8813 0.625H3.11687C1.73687 0.625 0.625 1.7125 0.625 3.05687V31.9431C0.625 33.2875 1.73875 34.375 3.115 34.375H31.8738C33.25 34.375 34.375 33.2875 34.375 31.9431V3.05687C34.375 1.7125 33.25 0.625 31.8738 0.625H31.8794H31.8813Z" fill="black"/>
</svg>
